/* XPM */
static char *_aef44558c0c48d8e60fee53015386e8Wtn35lBhfPTZR587[] = {
/* columns rows colors chars-per-pixel */
"32 32 208 2 ",
"   c #202321",
".  c #312E2A",
"X  c #2D302E",
"o  c #36332E",
"O  c #2C3432",
"+  c #343A36",
"@  c #393D39",
"#  c #413B33",
"$  c #5E3C36",
"%  c #3A413D",
"&  c #48463D",
"*  c #55483A",
"=  c #5B4D3A",
"-  c #5F4537",
";  c #5E503B",
":  c #66483A",
">  c #6B543B",
",  c #6A553A",
"<  c #70553A",
"1  c #3F4844",
"2  c #3F4645",
"3  c #3D5A60",
"4  c #454943",
"5  c #4A4C43",
"6  c #444C4A",
"7  c #484E49",
"8  c #524D44",
"9  c #4E544C",
"0  c #52554D",
"q  c #565A4C",
"w  c #5A5D49",
"e  c #4F5853",
"r  c #4C5450",
"t  c #525651",
"y  c #535B54",
"u  c #585D57",
"i  c #6E4A41",
"p  c #6D5644",
"a  c #6D5B43",
"s  c #685B4A",
"d  c #745D45",
"f  c #785D44",
"g  c #775949",
"h  c #784F43",
"j  c #56605D",
"k  c #5C6257",
"l  c #6E614C",
"z  c #766146",
"x  c #796146",
"c  c #75634A",
"v  c #7B654A",
"b  c #7E6A4E",
"n  c #616252",
"m  c #6C6452",
"M  c #6B695B",
"N  c #706354",
"B  c #766B52",
"V  c #7C6D52",
"C  c #796B57",
"Z  c #7E7156",
"A  c #76725C",
"S  c #7D755B",
"D  c #436469",
"F  c #5F6765",
"G  c #5E6967",
"H  c #55787E",
"J  c #686E68",
"K  c #716F61",
"L  c #6D7169",
"P  c #757465",
"I  c #7C7D6C",
"U  c #78776A",
"Y  c #6B7472",
"T  c #6D7979",
"R  c #677372",
"E  c #7B7D73",
"W  c #737F7B",
"Q  c #835A4D",
"!  c #82664C",
"~  c #836A4D",
"^  c #8A6E4F",
"/  c #826D52",
"(  c #8A6E53",
")  c #806C58",
"_  c #837155",
"`  c #8B7254",
"'  c #867559",
"]  c #8B7559",
"[  c #8C795C",
"{  c #8D7857",
"}  c #927555",
"|  c #937B5D",
" . c #987859",
".. c #827A63",
"X. c #8D7D63",
"o. c #827A68",
"O. c #937C63",
"+. c #9A7E63",
"@. c #7B837C",
"#. c #96825E",
"$. c #A0805F",
"%. c #8B826C",
"&. c #86826C",
"*. c #968264",
"=. c #9B8464",
"-. c #9B866A",
";. c #9E896B",
":. c #97856B",
">. c #858678",
",. c #948A74",
"<. c #9E8F73",
"1. c #9C947D",
"2. c #9B9075",
"3. c #A38464",
"4. c #A28B6D",
"5. c #A58768",
"6. c #AD916C",
"7. c #B2936C",
"8. c #B8986F",
"9. c #A38B73",
"0. c #A69172",
"q. c #A4947A",
"w. c #AD967A",
"e. c #AC9575",
"r. c #B49A75",
"t. c #BC9C75",
"y. c #B39C7C",
"u. c #B49770",
"i. c #BFA37B",
"p. c #C2A57C",
"a. c #7E8A89",
"s. c #7D8886",
"d. c #779295",
"f. c #748C8C",
"g. c #7F9BA5",
"h. c #848C8B",
"j. c #948E80",
"k. c #8C9083",
"l. c #9E9D84",
"z. c #989887",
"x. c #828F91",
"c. c #819097",
"v. c #84949A",
"b. c #88979F",
"n. c #8B9693",
"m. c #929D9A",
"M. c #A89D89",
"N. c #B39E80",
"B. c #A39C90",
"V. c #9BA29D",
"C. c #ACA288",
"Z. c #BFA884",
"A. c #BAA685",
"S. c #A1A29A",
"D. c #B7AD9B",
"F. c #8696A1",
"G. c #8C9CA4",
"H. c #8B9DA9",
"J. c #8799A4",
"K. c #919FA6",
"L. c #8EA2A9",
"P. c #93A1A7",
"I. c #99A3A4",
"U. c #92A2AB",
"Y. c #99A5AB",
"T. c #9BA8AE",
"R. c #99A7B1",
"E. c #9CAAB5",
"W. c #9CAAB8",
"Q. c #ADAEAC",
"!. c #A2A9A8",
"~. c #B4B2AC",
"^. c #A3AEB4",
"/. c #A1AEBB",
"(. c #A2B1B6",
"). c #ACB4B2",
"_. c #A5B2BB",
"`. c #AAB4BB",
"'. c #ADB9BE",
"]. c #B1BABB",
"[. c #B7BCB9",
"{. c #C9A880",
"}. c #ADB7C0",
"|. c #AEB9C2",
" X c #A7B7C2",
".X c #B2BBC5",
"XX c #B4BEC9",
"oX c #B0B7C3",
"OX c #AFC1CA",
"+X c #B6C0CA",
"@X c #BBC4CC",
"#X c #B8C5C8",
"$X c #BEC6D1",
"%X c #BDC9D2",
"&X c #C4CCD5",
"*X c #C6CED9",
"=X c #CAD1D5",
"-X c #CDD4DC",
";X c #CED9DC",
":X c #C7D1DD",
">X c #D3DBDE",
",X c #CCD6E3",
"<X c #D1D7E3",
"1X c #D5DCE1",
"2X c #DADEE2",
"3X c #DEE1E8",
"4X c #DCE0E3",
"5X c #E0E2EA",
/* pixels */
"P.T.^.).oX[.@X&X&X#X[.).!.z.z.k.h.m.).=X4X3X4X2X2X3X2X1X1X2X1X4X",
"G.Y.^.(.`.OX'.n.>.>.P M P P J J J L Y @.n.'.1X3X2X2X4X2X2X1X2X2X",
"K.P.T.^.`.m.P M n 0 e u u u e e y j J J R @.m.-X3X4X4X4X2X2X2X2X",
"T.E.^.].V.w w 9 1 2 6 6 6 r r t r r e j G R T a.+X4X2X2X4X>X2X2X",
"(.(.'.(.n & % % % % 2 1 4 6 7 9 0 9 0 t u F R T @.&X5X>X>X>X>X4X",
"(.(.'.@.% % X X O X + % % 2 4 5 5 & 4 5 9 t u R T (.5X2X2X4X2X2X",
"_.`.(.n % O X % # o . X o @ & = ; ; ; z ) ) N m Y a.;X>X>X1X>X1X",
"`.'.T.; % * ^ ^  .| ! i p ( +.=.$.$.7.t.p.{.t.6.&.U .X2X>X>X>X>X",
"(.`.T.u 5 `  .} }  .5.6.w.A.A.A.A.{.Z.i.i.i.p.t.0.@.].>X;X;X;X>X",
"(._.I.q s _ ^ ~ ^ ` { *.;.q.w.w.y.y.r.r.r.8.8.7.6.#.].,X;X;X;X;X",
"^.`.Y.0 m V v ^ } { | =.-.;.0.0.w.w.r.r.6.6.7.7.y.&.S.;X=X-X=X=X",
"^.`.^.y B Z v > , a x / [ *.=.4.;.=.| / x ! | 0.C.@.).,X=X=X=X-X",
"`.^.K.t m ..B z f , , , < | *.=.| } ^  .3.5.;.q.M.o.D.D.&X&X=X=X",
"`.I.) 8 n &.S b < , , > < ( ;.=.` ~ b c N N X.q.M.O.+.+.&X&X=X&X",
"/.m.g l n o.C * &   @ : f ~ ;.*.! ! g & 8 N ) <.j.O.+.C.%X$X&X&X",
"E.U.U p K o.Z B s , d d x ! #.O.( O.O.O.O.+.;.<.l.O. .~.%X@X$X&X",
"U.H.h.p P I S _ V / b / b ( X.O.( O.-.-.;.;.;.1.l.[ 9.XXXX&XXX&X",
"U.J.J.U s @.S V _ _ / / b ) X.O.( } *.9.5.4.=.1.1.+.Q.XXXXXXXXXX",
"H.J.F.F.o.E S b _ ' ' ' x ) O.-.] ( ;.4.4.;.*.2.S.Q.XX.X.XXXXXXX",
"J.F.v.F.H.a.A B Z ' ' [ f > v ~ g ~ ;.9.<.;.*.2.).XX.XXX.X.XXXXX",
"H.v.v.v.b.x.A B V ' ' ' / ! ! v ( [ ;.4.;.=.=.1.]..X.X.X.X.X.X.X",
"H.v.c.v.v.v.U B V _ _ _ _ ` [ | | | =.=.=.*.:.S.oX.X.XoX.X.X.X.X",
"K.v.c.c.v.v.x.P V V B a : $ : : : i ! =.*.*.z.`..XoX.XoXoXoX].oX",
"R.K.v.v.c.v.b.a.A B x f g h h h Q Q  .| | :.V..X.X.XoXoX'.oXoX.X",
"W.R.P.G.b.v.b.a.m B c c v v ~ ~ ^ ` } ` X.%.j..X|..X.XoX.X.X.XXX",
"W.W.R.T.U.K.H.n.a a l b b { *.*.#.#.{ [ ' v ,.|..X.X.X.XXX@X&X&X",
"W.W.W.^.^.E.W.I.V f z b _ ` { ` ^ / _ V b v %..XXXXX@X@X&X&X&X*X",
"W.R.R.R.E._. XI._ / ! v / _ b v v v x v v ~ [ Q.$X$X&X&X&X*X-X-X",
"W.E.R.E._.b.s.&._ _ / / / V b b x c c b / ' [ <.[.%X:X,X*X:X<X-X",
"W.W.(.R.d.5 Z _ _ _ _ / b ! c d z z v / ` ` [ | ;.D.~.}.<X<X<X<X",
"(.E.g.H D n _ Z _ V _ ' / / c d z c b _ ] [ [ [ +.=.5...L.XX&X<X",
"d.H D 3 D q b _ _ _ _ ' ' ' b c b b _ ] _ ] [ [ | =.=.| W d.J.^."
};
